<svg width="72" height="72" xmlns="http://www.w3.org/2000/svg" xmlns:xlink="http://www.w3.org/1999/xlink" xml:space="preserve" overflow="hidden"><defs><radialGradient cx="-105.006" cy="-10.409" r="5.954" gradientUnits="userSpaceOnUse" spreadMethod="pad" id="fill0" gradientTransform="matrix(4.144 0 0 4.108 531.956 119.576)"><stop offset="0" stop-color="#5EA0EF"/><stop offset="0.183" stop-color="#5EA0EF"/><stop offset="1" stop-color="#0078D4"/></radialGradient><clipPath id="clip1"><path d="M120.876 71.12C124.026 84.3064 115.89 97.55 102.704 100.7 89.5176 103.85 76.2742 95.7148 73.1238 82.5284 69.9735 69.3419 78.1094 56.0984 91.2958 52.948 104.482 49.7979 117.726 57.9337 120.876 71.12Z"/></clipPath></defs><g transform="translate(-61 -41)"><path d="M72.816 62.064C72.4294 62.0662 72.1142 61.7546 72.112 61.368 72.112 61.3654 72.112 61.3627 72.112 61.36L72.112 61.36C72.1054 56.9246 68.5114 53.3306 64.076 53.324 63.6887 53.324 63.3742 53.0112 63.372 52.624L63.372 52.624C63.372 52.2352 63.6872 51.92 64.076 51.92 68.513 51.9134 72.1076 48.317 72.112 43.88 72.1098 43.4934 72.4214 43.1782 72.808 43.176 72.8106 43.176 72.8133 43.176 72.816 43.176L72.816 43.176C73.2026 43.1738 73.5178 43.4854 73.52 43.872 73.52 43.8747 73.52 43.8773 73.52 43.88L73.52 43.88C73.5266 48.3154 77.1206 51.9094 81.556 51.916 81.9426 51.9138 82.2578 52.2254 82.26 52.612 82.26 52.6146 82.26 52.6173 82.26 52.62L82.26 52.62C82.2622 53.0066 81.9506 53.3218 81.564 53.324 81.5614 53.324 81.5587 53.324 81.556 53.324L81.556 53.324C77.1197 53.3284 73.5244 56.9237 73.52 61.36 73.5178 61.7479 73.2039 62.0618 72.816 62.064Z" fill="#50E6FF"/><path d="M123.444 110.824C123.132 110.824 122.88 110.572 122.88 110.26L122.88 110.26C122.876 106.712 120 103.836 116.452 103.832 116.142 103.832 115.89 103.582 115.888 103.272L115.888 103.272C115.888 102.96 116.14 102.708 116.452 102.708L116.452 102.708C120.001 102.706 122.878 99.8292 122.88 96.28 122.88 95.9684 123.132 95.716 123.444 95.716L123.444 95.716C123.756 95.716 124.008 95.9684 124.008 96.28L124.008 96.28C124.01 99.8292 126.887 102.706 130.436 102.708 130.748 102.708 131 102.96 131 103.272 131 103.584 130.748 103.836 130.436 103.836L130.436 103.836C126.888 103.84 124.012 106.716 124.008 110.264 124.006 110.574 123.754 110.824 123.444 110.824Z" fill="#50E6FF"/><path d="M120.876 71.12C124.026 84.3064 115.89 97.55 102.704 100.7 89.5176 103.85 76.2742 95.7148 73.1238 82.5284 69.9735 69.3419 78.1094 56.0984 91.2958 52.948 104.482 49.7979 117.726 57.9337 120.876 71.12Z" fill="url(#fill0)"/><g clip-path="url(#clip1)"><path d="M83.836 93.46C87.4533 93.5548 90.4626 90.6992 90.5573 87.082 90.6521 83.4644 87.7965 80.4552 84.1791 80.3605 84.0714 80.3577 83.9637 80.3575 83.856 80.36 83.8754 80.174 83.8847 79.987 83.884 79.8 83.851 76.1605 80.8796 73.2338 77.24 73.256L72.328 73.256C71.3552 80.6034 73.6921 88.0036 78.708 93.46Z" fill="#F2F2F2"/><path d="M121.18 72.26C121.18 72.2 121.18 72.14 121.152 72.084 120.361 67.8037 118.416 63.8206 115.528 60.564 115.153 60.4122 114.767 60.2918 114.372 60.204 110.536 59.1094 106.538 61.3322 105.443 65.1688 105.286 65.7185 105.195 66.2848 105.172 66.856 104.906 66.8253 104.639 66.808 104.372 66.804 100.535 66.8037 97.4238 69.9142 97.4234 73.7514 97.4232 76.6932 99.2756 79.3163 102.048 80.3 102.737 80.5701 103.472 80.7059 104.212 80.7L112.332 80.7C115.592 78.232 118.561 75.4004 121.18 72.26Z" fill="#F2F2F2"/></g><path d="M129.764 56.328C127.248 52.14 121.364 50.508 113.144 51.732 110.328 52.1311 107.544 52.7354 104.816 53.54 106.98 54.2872 109.036 55.3189 110.928 56.608 111.892 56.396 112.86 56.144 113.788 56.004 115.248 55.7767 116.722 55.6577 118.2 55.648 121.134 55.225 124.084 56.3164 126.036 58.548L126.036 58.548C127.568 61.1 126.276 65.464 122.492 70.548 117.233 77.0937 110.789 82.5908 103.496 86.752 96.3665 91.2016 88.4639 94.2712 80.2 95.8 73.944 96.736 69.472 95.8 67.94 93.256 66.408 90.712 67.7 86.336 71.484 81.276 71.952 80.648 72.068 80.34 72.6 79.708 72.35 77.5394 72.3849 75.3475 72.704 73.188 71.0034 74.8926 69.4386 76.7275 68.024 78.676 63.068 85.304 61.724 91.264 64.236 95.452 66.9366 99.0648 71.3554 100.968 75.836 100.448 77.5116 100.439 79.1842 100.306 80.84 100.048 89.6611 98.438 98.1002 95.1812 105.716 90.448 113.494 85.9968 120.362 80.118 125.96 73.12 130.932 66.476 132.276 60.52 129.764 56.328Z" fill="#50E6FF"/></g></svg>