<svg width="31" height="31" xmlns="http://www.w3.org/2000/svg" xmlns:xlink="http://www.w3.org/1999/xlink" xml:space="preserve" overflow="hidden"><defs><clipPath id="clip0"><rect x="940" y="138" width="31" height="31"/></clipPath><linearGradient x1="946.938" y1="169" x2="946.938" y2="157.729" gradientUnits="userSpaceOnUse" spreadMethod="pad" id="fill1"><stop offset="0" stop-color="#2AAC94"/><stop offset="0.056" stop-color="#2AAC94"/><stop offset="0.155" stop-color="#239C87"/><stop offset="0.372" stop-color="#177E71"/><stop offset="0.588" stop-color="#0E6961"/><stop offset="0.799" stop-color="#095D57"/><stop offset="1" stop-color="#085954"/></linearGradient><linearGradient x1="961.181" y1="160.822" x2="950.297" y2="148.984" gradientUnits="userSpaceOnUse" spreadMethod="pad" id="fill2"><stop offset="0" stop-color="#ABE88E"/><stop offset="0.0417478" stop-color="#ABE88E"/><stop offset="0.548926" stop-color="#2AAA92"/><stop offset="0.906" stop-color="#117865"/><stop offset="1" stop-color="#117865"/></linearGradient><linearGradient x1="934.434" y1="160.246" x2="944.792" y2="156.714" gradientUnits="userSpaceOnUse" spreadMethod="pad" id="fill3"><stop offset="0" stop-color="#6AD6F9" stop-opacity="0.8"/><stop offset="1" stop-color="#6AD6F9" stop-opacity="0"/></linearGradient><linearGradient x1="942.335" y1="146.695" x2="969.906" y2="146.695" gradientUnits="userSpaceOnUse" spreadMethod="pad" id="fill4"><stop offset="0" stop-color="#25FFD4"/><stop offset="0.043" stop-color="#25FFD4"/><stop offset="0.874" stop-color="#55DDB9"/><stop offset="1" stop-color="#55DDB9"/></linearGradient><linearGradient x1="952.947" y1="139.2" x2="958.86" y2="151.879" gradientUnits="userSpaceOnUse" spreadMethod="pad" id="fill5"><stop offset="0" stop-color="#F4E084" stop-opacity="0.6"/><stop offset="0.534" stop-color="#F4E084" stop-opacity="0"/><stop offset="1" stop-color="#F4E084" stop-opacity="0"/></linearGradient><linearGradient x1="962.785" y1="131.308" x2="970.755" y2="143.55" gradientUnits="userSpaceOnUse" spreadMethod="pad" id="fill6"><stop offset="0" stop-color="#ABF5E2"/><stop offset="1" stop-color="#4EE6BD"/></linearGradient><linearGradient x1="956.667" y1="138" x2="956.667" y2="155.39" gradientUnits="userSpaceOnUse" spreadMethod="pad" id="fill7"><stop offset="0" stop-color="#1F937E"/><stop offset="1" stop-color="#9EE09F"/></linearGradient><linearGradient x1="956.667" y1="138" x2="956.667" y2="155.39" gradientUnits="userSpaceOnUse" spreadMethod="pad" id="fill8"><stop offset="0" stop-color="#1F937E"/><stop offset="1" stop-color="#C0ECC7"/></linearGradient><linearGradient x1="942.335" y1="142.841" x2="967.171" y2="154.374" gradientUnits="userSpaceOnUse" spreadMethod="pad" id="fill9"><stop offset="0" stop-color="#6AD6F9"/><stop offset="0.229501" stop-color="#60E9D0"/><stop offset="0.650711" stop-color="#6DE9BB"/><stop offset="0.99354" stop-color="#ABE88E"/><stop offset="1" stop-color="#ABE88E"/></linearGradient><linearGradient x1="944.633" y1="144.999" x2="958.138" y2="147.986" gradientUnits="userSpaceOnUse" spreadMethod="pad" id="fill10"><stop offset="0" stop-color="#FFFFFF" stop-opacity="0"/><stop offset="0.458511" stop-color="#FFFFFF" stop-opacity="0.4"/><stop offset="1" stop-color="#FFFFFF" stop-opacity="0"/></linearGradient><linearGradient x1="949.111" y1="156.569" x2="949.43" y2="147.098" gradientUnits="userSpaceOnUse" spreadMethod="pad" id="fill11"><stop offset="0" stop-color="#063D3B" stop-opacity="0"/><stop offset="0.204642" stop-color="#063D3B" stop-opacity="0"/><stop offset="0.58553" stop-color="#063D3B" stop-opacity="0.236587"/><stop offset="0.872285" stop-color="#063D3B" stop-opacity="0.75"/><stop offset="1" stop-color="#063D3B" stop-opacity="0.75"/></linearGradient><linearGradient x1="939.078" y1="155.627" x2="950.618" y2="157.797" gradientUnits="userSpaceOnUse" spreadMethod="pad" id="fill12"><stop offset="0" stop-color="#FFFFFF" stop-opacity="0"/><stop offset="0.458511" stop-color="#FFFFFF" stop-opacity="0.2"/><stop offset="1" stop-color="#FFFFFF" stop-opacity="0"/></linearGradient><linearGradient x1="947.414" y1="165.877" x2="945.163" y2="154.867" gradientUnits="userSpaceOnUse" spreadMethod="pad" id="fill13"><stop offset="0" stop-color="#063D3B" stop-opacity="0"/><stop offset="0.064" stop-color="#063D3B" stop-opacity="0"/><stop offset="0.17" stop-color="#063D3B" stop-opacity="0.135"/><stop offset="0.562" stop-color="#063D3B" stop-opacity="0.599"/><stop offset="0.85" stop-color="#063D3B" stop-opacity="0.9"/><stop offset="1" stop-color="#063D3B"/></linearGradient></defs><g clip-path="url(#clip0)" transform="translate(-940 -138)"><path d="M941.271 159.389 940.817 161.051C940.648 161.583 940.411 162.363 940.283 163.058 940.101 163.539 940.001 164.06 940.001 164.604 940.001 166.849 941.697 168.698 943.878 168.939 944.491 169.028 945.185 169.023 945.964 168.909L949.539 168.415C950.438 168.291 951.176 167.642 951.415 166.767L953.876 157.729 941.271 159.389Z" fill="url(#fill1)" fill-rule="evenodd"/><path d="M944.758 159.817C940.99 160.401 940.216 163.245 940.216 163.245L943.825 149.985 962.683 147.434 960.111 156.774C959.977 157.275 959.557 157.658 959.036 157.738L958.93 157.755 944.652 159.836 944.758 159.817Z" fill="url(#fill2)"/><path d="M944.758 159.817C940.99 160.401 940.216 163.245 940.216 163.245L943.825 149.985 962.683 147.434 960.111 156.774C959.977 157.275 959.557 157.658 959.036 157.738L958.93 157.755 944.652 159.836 944.758 159.817Z" fill="url(#fill3)"/><path d="M946.897 151.357 967.773 148.273C968.27 148.205 968.672 147.842 968.799 147.366L970.953 139.569C970.983 139.463 970.998 139.351 970.998 139.236 970.998 138.553 970.445 138 969.762 138 969.709 138 969.656 138.003 969.605 138.01L949.685 140.953C947.522 141.301 945.775 142.897 945.208 144.978L942.335 155.39C942.912 153.283 943.266 152.014 946.897 151.357Z" fill="url(#fill4)"/><path d="M946.897 151.357 967.773 148.273C968.27 148.205 968.672 147.842 968.799 147.366L970.953 139.569C970.983 139.463 970.998 139.351 970.998 139.236 970.998 138.553 970.445 138 969.762 138 969.709 138 969.656 138.003 969.605 138.01L949.685 140.953C947.522 141.301 945.775 142.897 945.208 144.978L942.335 155.39C942.912 153.283 943.266 152.014 946.897 151.357Z" fill="url(#fill5)"/><path d="M946.897 151.357 967.773 148.273C968.27 148.205 968.672 147.842 968.799 147.366L970.953 139.569C970.983 139.463 970.998 139.351 970.998 139.236 970.998 138.553 970.445 138 969.762 138 969.709 138 969.656 138.003 969.605 138.01L949.685 140.953C947.522 141.301 945.775 142.897 945.208 144.978L942.335 155.39C942.912 153.283 943.266 152.014 946.897 151.357Z" fill="url(#fill6)"/><path d="M946.897 151.357 967.773 148.273C968.27 148.205 968.672 147.842 968.799 147.366L970.953 139.569C970.983 139.463 970.998 139.351 970.998 139.236 970.998 138.553 970.445 138 969.762 138 969.709 138 969.656 138.003 969.605 138.01L949.685 140.953C947.522 141.301 945.775 142.897 945.208 144.978L942.335 155.39C942.912 153.283 943.266 152.014 946.897 151.357Z" fill="url(#fill7)"/><path d="M946.897 151.357 967.773 148.273C968.27 148.205 968.672 147.842 968.799 147.366L970.953 139.569C970.983 139.463 970.998 139.351 970.998 139.236 970.998 138.553 970.445 138 969.762 138 969.709 138 969.656 138.003 969.605 138.01L949.685 140.953C947.522 141.301 945.775 142.897 945.208 144.978L942.335 155.39C942.912 153.283 943.266 152.014 946.897 151.357Z" fill="url(#fill8)"/><path d="M946.897 151.357 967.773 148.273C968.27 148.205 968.672 147.842 968.799 147.366L970.953 139.569C970.983 139.463 970.998 139.351 970.998 139.236 970.998 138.553 970.445 138 969.762 138 969.709 138 969.656 138.003 969.605 138.01L949.685 140.953C947.522 141.301 945.775 142.897 945.208 144.978L942.335 155.39C942.912 153.283 943.266 152.014 946.897 151.357Z" fill="url(#fill9)"/><path d="M946.897 151.357 967.773 148.273C968.27 148.205 968.672 147.842 968.799 147.366L970.953 139.569C970.983 139.463 970.998 139.351 970.998 139.236 970.998 138.553 970.445 138 969.762 138 969.709 138 969.656 138.003 969.605 138.01L949.685 140.953C947.522 141.301 945.775 142.897 945.208 144.978L942.335 155.39C942.912 153.283 943.266 152.014 946.897 151.357Z" fill="url(#fill10)"/><path d="M946.897 151.358C943.873 151.905 943.123 152.879 942.623 154.405L940.216 163.247C940.216 163.247 940.985 160.432 944.708 159.83L958.931 157.758 959.036 157.74C959.557 157.661 959.978 157.277 960.112 156.777L962.227 149.093 946.897 151.358 946.897 151.358Z" fill="url(#fill11)"/><path d="M946.897 151.358C943.873 151.905 943.123 152.879 942.623 154.405L940.216 163.247C940.216 163.247 940.985 160.432 944.708 159.83L958.931 157.758 959.036 157.74C959.557 157.661 959.978 157.277 960.112 156.777L962.227 149.093 946.897 151.358 946.897 151.358Z" fill="url(#fill12)"/><path d="M944.708 159.83C941.562 160.339 940.529 162.422 940.283 163.057 940.101 163.539 940.001 164.06 940.001 164.604 940.001 166.849 941.697 168.698 943.878 168.939 944.491 169.028 945.185 169.023 945.964 168.909L949.539 168.415C950.438 168.291 951.176 167.642 951.415 166.767L953.658 158.527 944.709 159.831 944.708 159.83Z" fill="url(#fill13)" fill-rule="evenodd"/></g></svg>